<mxfile host="app.diagrams.net" modified="2023-09-21T16:20:50.203Z" agent="Mozilla/5.0 (Windows NT 10.0; Win64; x64) AppleWebKit/537.36 (KHTML, like Gecko) Chrome/114.0.0.0 Safari/537.36" etag="5U7FePYGfHUFaiXSt7WY" version="21.8.0" type="github">
  <diagram name="第 1 页" id="9kgtrqsV56zSpUYmBgJo">
    <mxGraphModel dx="2261" dy="764" grid="1" gridSize="10" guides="1" tooltips="1" connect="1" arrows="1" fold="1" page="1" pageScale="1" pageWidth="827" pageHeight="1169" math="0" shadow="0">
      <root>
        <mxCell id="0" />
        <mxCell id="1" parent="0" />
        <mxCell id="5vaN2xRETK-o-afHIxtq-3" style="edgeStyle=orthogonalEdgeStyle;rounded=0;orthogonalLoop=1;jettySize=auto;html=1;exitX=1;exitY=0.5;exitDx=0;exitDy=0;" edge="1" parent="1" source="5vaN2xRETK-o-afHIxtq-1" target="5vaN2xRETK-o-afHIxtq-2">
          <mxGeometry relative="1" as="geometry" />
        </mxCell>
        <mxCell id="5vaN2xRETK-o-afHIxtq-1" value="&lt;font style=&quot;font-size: 29px;&quot;&gt;JVMInit&lt;/font&gt;" style="rounded=0;whiteSpace=wrap;html=1;" vertex="1" parent="1">
          <mxGeometry x="-200" y="250" width="120" height="60" as="geometry" />
        </mxCell>
        <mxCell id="5vaN2xRETK-o-afHIxtq-5" style="edgeStyle=orthogonalEdgeStyle;rounded=0;orthogonalLoop=1;jettySize=auto;html=1;exitX=1;exitY=0.5;exitDx=0;exitDy=0;" edge="1" parent="1" source="5vaN2xRETK-o-afHIxtq-2" target="5vaN2xRETK-o-afHIxtq-4">
          <mxGeometry relative="1" as="geometry" />
        </mxCell>
        <mxCell id="5vaN2xRETK-o-afHIxtq-2" value="&lt;font style=&quot;font-size: 29px;&quot;&gt;ContinueInNewThread&lt;/font&gt;" style="rounded=0;whiteSpace=wrap;html=1;" vertex="1" parent="1">
          <mxGeometry x="-20" y="250" width="320" height="60" as="geometry" />
        </mxCell>
        <mxCell id="5vaN2xRETK-o-afHIxtq-7" style="edgeStyle=orthogonalEdgeStyle;rounded=0;orthogonalLoop=1;jettySize=auto;html=1;exitX=1;exitY=0.5;exitDx=0;exitDy=0;entryX=0;entryY=0.5;entryDx=0;entryDy=0;" edge="1" parent="1" source="5vaN2xRETK-o-afHIxtq-4" target="5vaN2xRETK-o-afHIxtq-6">
          <mxGeometry relative="1" as="geometry" />
        </mxCell>
        <mxCell id="5vaN2xRETK-o-afHIxtq-9" style="edgeStyle=orthogonalEdgeStyle;rounded=0;orthogonalLoop=1;jettySize=auto;html=1;exitX=1;exitY=0.5;exitDx=0;exitDy=0;entryX=0;entryY=0.5;entryDx=0;entryDy=0;" edge="1" parent="1" source="5vaN2xRETK-o-afHIxtq-4" target="5vaN2xRETK-o-afHIxtq-8">
          <mxGeometry relative="1" as="geometry" />
        </mxCell>
        <mxCell id="5vaN2xRETK-o-afHIxtq-4" value="&lt;font style=&quot;font-size: 29px;&quot;&gt;ContinueInNewThread0&lt;/font&gt;" style="rounded=0;whiteSpace=wrap;html=1;" vertex="1" parent="1">
          <mxGeometry x="410" y="250" width="320" height="60" as="geometry" />
        </mxCell>
        <mxCell id="5vaN2xRETK-o-afHIxtq-6" value="&lt;font style=&quot;font-size: 18px;&quot;&gt;pthread_create&lt;/font&gt;" style="rounded=0;whiteSpace=wrap;html=1;" vertex="1" parent="1">
          <mxGeometry x="827" y="120" width="140" height="60" as="geometry" />
        </mxCell>
        <mxCell id="5vaN2xRETK-o-afHIxtq-8" value="&lt;font style=&quot;font-size: 18px;&quot;&gt;continuation&lt;/font&gt;" style="rounded=0;whiteSpace=wrap;html=1;" vertex="1" parent="1">
          <mxGeometry x="827" y="370" width="140" height="60" as="geometry" />
        </mxCell>
      </root>
    </mxGraphModel>
  </diagram>
</mxfile>
